<mxfile host="app.diagrams.net" agent="Mozilla/5.0 (Windows NT 10.0; Win64; x64) AppleWebKit/537.36 (KHTML, like Gecko) Chrome/135.0.0.0 Safari/537.36" version="26.2.12">
  <diagram name="PÃ¡gina-1" id="y7aBLt-_V0NhAAsIdyB0">
    <mxGraphModel dx="985" dy="512" grid="1" gridSize="10" guides="1" tooltips="1" connect="1" arrows="1" fold="1" page="1" pageScale="1" pageWidth="827" pageHeight="1169" math="0" shadow="0">
      <root>
        <mxCell id="0" />
        <mxCell id="1" parent="0" />
        <mxCell id="2" value="" style="whiteSpace=wrap;strokeWidth=2;" parent="1" vertex="1">
          <mxGeometry x="94" y="467" width="640" height="118" as="geometry" />
        </mxCell>
        <mxCell id="3" value="" style="whiteSpace=wrap;strokeWidth=2;" parent="1" vertex="1">
          <mxGeometry x="94" y="197" width="640" height="240" as="geometry" />
        </mxCell>
        <mxCell id="4" value="Interface (Front-End)" style="whiteSpace=wrap;strokeWidth=2;fillColor=#fff2cc;strokeColor=#d6b656;" parent="1" vertex="1">
          <mxGeometry x="331.5" y="227" width="150" height="50" as="geometry" />
        </mxCell>
        <mxCell id="5" value="API (Back-End)" style="whiteSpace=wrap;strokeWidth=2;fillColor=#fff2cc;strokeColor=#d6b656;" parent="1" vertex="1">
          <mxGeometry x="333" y="326" width="150" height="50" as="geometry" />
        </mxCell>
        <mxCell id="6" value="PostgreSQL" style="shape=cylinder3;boundedLbl=1;backgroundOutline=1;size=10;strokeWidth=2;whiteSpace=wrap;fillColor=#e1d5e7;strokeColor=#9673a6;" parent="1" vertex="1">
          <mxGeometry x="120" y="492" width="81" height="68" as="geometry" />
        </mxCell>
        <mxCell id="7" value="Tomorrow.io" style="whiteSpace=wrap;strokeWidth=2;fillColor=#dae8fc;strokeColor=#6c8ebf;" parent="1" vertex="1">
          <mxGeometry x="220" y="501" width="150" height="50" as="geometry" />
        </mxCell>
        <mxCell id="8" value="OpenAI" style="whiteSpace=wrap;strokeWidth=2;fillColor=#dae8fc;strokeColor=#6c8ebf;" parent="1" vertex="1">
          <mxGeometry x="390" y="502" width="150" height="48" as="geometry" />
        </mxCell>
        <mxCell id="9" value="" style="curved=1;startArrow=classic;endArrow=block;exitX=0.5;exitY=1;entryX=0.5;entryY=0;startFill=1;" parent="1" source="4" target="5" edge="1">
          <mxGeometry relative="1" as="geometry">
            <Array as="points" />
          </mxGeometry>
        </mxCell>
        <mxCell id="10" value="" style="curved=1;startArrow=classic;endArrow=block;exitX=0;exitY=0.88;entryX=0.5;entryY=0;rounded=0;startFill=1;" parent="1" source="5" target="6" edge="1">
          <mxGeometry relative="1" as="geometry">
            <Array as="points">
              <mxPoint x="188" y="405" />
            </Array>
          </mxGeometry>
        </mxCell>
        <mxCell id="11" value="" style="curved=1;startArrow=classic;endArrow=block;exitX=0.5;exitY=1;entryX=0.5;entryY=0;startFill=1;exitDx=0;exitDy=0;" parent="1" source="5" target="7" edge="1">
          <mxGeometry relative="1" as="geometry">
            <Array as="points" />
          </mxGeometry>
        </mxCell>
        <mxCell id="I3RORerAtUsJSQb5PwS4-13" value="" style="image;sketch=0;aspect=fixed;html=1;points=[];align=center;fontSize=12;image=img/lib/mscae/Docker.svg;" parent="1" vertex="1">
          <mxGeometry x="494" y="227" width="24.39" height="20" as="geometry" />
        </mxCell>
        <mxCell id="I3RORerAtUsJSQb5PwS4-14" value="" style="image;sketch=0;aspect=fixed;html=1;points=[];align=center;fontSize=12;image=img/lib/mscae/Docker.svg;" parent="1" vertex="1">
          <mxGeometry x="494" y="326" width="23.17" height="19" as="geometry" />
        </mxCell>
        <mxCell id="tjKt9Ohx2urJ-ltdpNbO-16" value="" style="curved=1;startArrow=classic;endArrow=block;entryX=0.5;entryY=0;startFill=1;entryDx=0;entryDy=0;exitX=1.002;exitY=0.895;exitDx=0;exitDy=0;exitPerimeter=0;rounded=0;" edge="1" parent="1" target="tjKt9Ohx2urJ-ltdpNbO-15" source="5">
          <mxGeometry relative="1" as="geometry">
            <Array as="points">
              <mxPoint x="518.39" y="379.56" />
              <mxPoint x="590" y="420" />
            </Array>
            <mxPoint x="490" y="370" as="sourcePoint" />
            <mxPoint x="379.39" y="479.56" as="targetPoint" />
          </mxGeometry>
        </mxCell>
        <mxCell id="tjKt9Ohx2urJ-ltdpNbO-15" value="Google Cloud Geocoding" style="whiteSpace=wrap;strokeWidth=2;fillColor=#dae8fc;strokeColor=#6c8ebf;" vertex="1" parent="1">
          <mxGeometry x="560" y="503" width="150" height="48" as="geometry" />
        </mxCell>
        <mxCell id="tjKt9Ohx2urJ-ltdpNbO-19" value="" style="endArrow=classic;startArrow=classic;html=1;rounded=0;exitX=0.5;exitY=0;exitDx=0;exitDy=0;entryX=0.547;entryY=0.992;entryDx=0;entryDy=0;entryPerimeter=0;" edge="1" parent="1" source="8" target="5">
          <mxGeometry width="50" height="50" relative="1" as="geometry">
            <mxPoint x="400" y="480" as="sourcePoint" />
            <mxPoint x="420" y="380" as="targetPoint" />
          </mxGeometry>
        </mxCell>
        <mxCell id="tjKt9Ohx2urJ-ltdpNbO-21" value="Nuvigo" style="text;strokeColor=none;fillColor=none;html=1;fontSize=24;fontStyle=1;verticalAlign=middle;align=center;" vertex="1" parent="1">
          <mxGeometry x="364" y="110" width="100" height="40" as="geometry" />
        </mxCell>
      </root>
    </mxGraphModel>
  </diagram>
</mxfile>
